<svg id="visual" viewBox="0 0 900 600" width="900" height="600" xmlns="http://www.w3.org/2000/svg" xmlns:xlink="http://www.w3.org/1999/xlink" version="1.1"><g stroke-width="1" stroke-linejoin="bevel"><path d="M434 298L485 291L460 235Z" fill="#005d00" stroke="#005d00"></path><path d="M460 235L421 169L434 298Z" fill="#007e00" stroke="#007e00"></path><path d="M434 298L511 383L485 291Z" fill="#009800" stroke="#009800"></path><path d="M511 383L577 321L485 291Z" fill="#005500" stroke="#005500"></path><path d="M485 291L594 181L460 235Z" fill="#007e00" stroke="#007e00"></path><path d="M460 235L462 132L421 169Z" fill="#00aa00" stroke="#00aa00"></path><path d="M294 360L429 404L434 298Z" fill="#00aa00" stroke="#00aa00"></path><path d="M434 298L429 404L511 383Z" fill="#006500" stroke="#006500"></path><path d="M594 181L462 132L460 235Z" fill="#005500" stroke="#005500"></path><path d="M577 321L594 181L485 291Z" fill="#00a100" stroke="#00a100"></path><path d="M313 171L291 292L434 298Z" fill="#00aa00" stroke="#00aa00"></path><path d="M377 98L313 171L421 169Z" fill="#005d00" stroke="#005d00"></path><path d="M421 169L313 171L434 298Z" fill="#008700" stroke="#008700"></path><path d="M511 383L585 388L577 321Z" fill="#00aa00" stroke="#00aa00"></path><path d="M577 321L689 191L594 181Z" fill="#00a100" stroke="#00a100"></path><path d="M597 483L585 388L511 383Z" fill="#00aa00" stroke="#00aa00"></path><path d="M291 292L294 360L434 298Z" fill="#00aa00" stroke="#00aa00"></path><path d="M409 0L377 98L462 132Z" fill="#007600" stroke="#007600"></path><path d="M462 132L377 98L421 169Z" fill="#00a100" stroke="#00a100"></path><path d="M597 483L665 381L585 388Z" fill="#007e00" stroke="#007e00"></path><path d="M585 388L665 381L577 321Z" fill="#007600" stroke="#007600"></path><path d="M294 360L404 503L429 404Z" fill="#00a100" stroke="#00a100"></path><path d="M429 404L469 526L511 383Z" fill="#005500" stroke="#005500"></path><path d="M730 309L689 191L577 321Z" fill="#008700" stroke="#008700"></path><path d="M594 181L607 74L462 132Z" fill="#007600" stroke="#007600"></path><path d="M689 191L607 74L594 181Z" fill="#006500" stroke="#006500"></path><path d="M317 0L279 91L377 98Z" fill="#005d00" stroke="#005d00"></path><path d="M377 98L279 91L313 171Z" fill="#007e00" stroke="#007e00"></path><path d="M175 188L186 320L291 292Z" fill="#008f00" stroke="#008f00"></path><path d="M291 292L186 320L294 360Z" fill="#007e00" stroke="#007e00"></path><path d="M469 526L597 483L511 383Z" fill="#009800" stroke="#009800"></path><path d="M404 503L469 526L429 404Z" fill="#00aa00" stroke="#00aa00"></path><path d="M607 74L481 0L462 132Z" fill="#008700" stroke="#008700"></path><path d="M481 0L409 0L462 132Z" fill="#005d00" stroke="#005d00"></path><path d="M175 188L291 292L313 171Z" fill="#005500" stroke="#005500"></path><path d="M294 360L279 515L404 503Z" fill="#00aa00" stroke="#00aa00"></path><path d="M793 273L730 309L798 387Z" fill="#008f00" stroke="#008f00"></path><path d="M665 381L730 309L577 321Z" fill="#008700" stroke="#008700"></path><path d="M279 91L175 188L313 171Z" fill="#006d00" stroke="#006d00"></path><path d="M160 416L279 515L294 360Z" fill="#005d00" stroke="#005d00"></path><path d="M419 600L468 600L469 526Z" fill="#00aa00" stroke="#00aa00"></path><path d="M409 0L317 0L377 98Z" fill="#005500" stroke="#005500"></path><path d="M279 91L204 84L175 188Z" fill="#008f00" stroke="#008f00"></path><path d="M689 191L683 67L607 74Z" fill="#005d00" stroke="#005d00"></path><path d="M607 74L609 0L481 0Z" fill="#008700" stroke="#008700"></path><path d="M792 83L683 67L689 191Z" fill="#008f00" stroke="#008f00"></path><path d="M683 67L609 0L607 74Z" fill="#009800" stroke="#009800"></path><path d="M200 0L204 84L279 91Z" fill="#009800" stroke="#009800"></path><path d="M419 600L469 526L404 503Z" fill="#007e00" stroke="#007e00"></path><path d="M469 526L593 600L597 483Z" fill="#008700" stroke="#008700"></path><path d="M102 391L160 416L186 320Z" fill="#007e00" stroke="#007e00"></path><path d="M186 320L160 416L294 360Z" fill="#006d00" stroke="#006d00"></path><path d="M319 600L419 600L404 503Z" fill="#006d00" stroke="#006d00"></path><path d="M798 387L730 309L665 381Z" fill="#006500" stroke="#006500"></path><path d="M730 309L793 273L689 191Z" fill="#007600" stroke="#007600"></path><path d="M204 84L120 188L175 188Z" fill="#008700" stroke="#008700"></path><path d="M175 188L120 188L186 320Z" fill="#006500" stroke="#006500"></path><path d="M792 0L682 0L683 67Z" fill="#006500" stroke="#006500"></path><path d="M683 67L682 0L609 0Z" fill="#007600" stroke="#007600"></path><path d="M593 600L691 535L597 483Z" fill="#008700" stroke="#008700"></path><path d="M597 483L691 535L665 381Z" fill="#007600" stroke="#007600"></path><path d="M468 600L593 600L469 526Z" fill="#00a100" stroke="#00a100"></path><path d="M218 600L319 600L279 515Z" fill="#00aa00" stroke="#00aa00"></path><path d="M279 515L319 600L404 503Z" fill="#007600" stroke="#007600"></path><path d="M137 484L164 479L160 416Z" fill="#00aa00" stroke="#00aa00"></path><path d="M160 416L164 479L279 515Z" fill="#00aa00" stroke="#00aa00"></path><path d="M691 535L798 387L665 381Z" fill="#009800" stroke="#009800"></path><path d="M317 0L200 0L279 91Z" fill="#006d00" stroke="#006d00"></path><path d="M204 84L76 126L120 188Z" fill="#005d00" stroke="#005d00"></path><path d="M62 281L102 391L186 320Z" fill="#007600" stroke="#007600"></path><path d="M900 279L825 194L793 273Z" fill="#008700" stroke="#008700"></path><path d="M793 273L825 194L689 191Z" fill="#008700" stroke="#008700"></path><path d="M102 391L137 484L160 416Z" fill="#009800" stroke="#009800"></path><path d="M164 479L218 600L279 515Z" fill="#008f00" stroke="#008f00"></path><path d="M825 194L792 83L689 191Z" fill="#00aa00" stroke="#00aa00"></path><path d="M120 188L62 281L186 320Z" fill="#005500" stroke="#005500"></path><path d="M0 173L62 281L120 188Z" fill="#006500" stroke="#006500"></path><path d="M119 0L76 126L204 84Z" fill="#006d00" stroke="#006d00"></path><path d="M121 600L218 600L164 479Z" fill="#007600" stroke="#007600"></path><path d="M691 535L803 516L798 387Z" fill="#005500" stroke="#005500"></path><path d="M593 600L708 600L691 535Z" fill="#007e00" stroke="#007e00"></path><path d="M795 600L803 516L691 535Z" fill="#008f00" stroke="#008f00"></path><path d="M798 387L900 279L793 273Z" fill="#005d00" stroke="#005d00"></path><path d="M900 0L792 0L792 83Z" fill="#008700" stroke="#008700"></path><path d="M792 83L792 0L683 67Z" fill="#008700" stroke="#008700"></path><path d="M200 0L119 0L204 84Z" fill="#007600" stroke="#007600"></path><path d="M900 401L900 279L798 387Z" fill="#006500" stroke="#006500"></path><path d="M825 194L900 118L792 83Z" fill="#008f00" stroke="#008f00"></path><path d="M900 279L900 217L825 194Z" fill="#009800" stroke="#009800"></path><path d="M102 391L0 461L137 484Z" fill="#00aa00" stroke="#00aa00"></path><path d="M137 484L121 600L164 479Z" fill="#007e00" stroke="#007e00"></path><path d="M62 281L0 336L102 391Z" fill="#008f00" stroke="#008f00"></path><path d="M0 173L0 336L62 281Z" fill="#007600" stroke="#007600"></path><path d="M0 173L120 188L76 126Z" fill="#005d00" stroke="#005d00"></path><path d="M803 516L900 401L798 387Z" fill="#00a100" stroke="#00a100"></path><path d="M0 124L0 173L76 126Z" fill="#008700" stroke="#008700"></path><path d="M900 217L900 118L825 194Z" fill="#005500" stroke="#005500"></path><path d="M0 600L121 600L137 484Z" fill="#005500" stroke="#005500"></path><path d="M0 336L0 388L102 391Z" fill="#006d00" stroke="#006d00"></path><path d="M708 600L795 600L691 535Z" fill="#007600" stroke="#007600"></path><path d="M803 516L900 506L900 401Z" fill="#006d00" stroke="#006d00"></path><path d="M0 0L0 124L76 126Z" fill="#00aa00" stroke="#00aa00"></path><path d="M0 388L0 461L102 391Z" fill="#006d00" stroke="#006d00"></path><path d="M900 600L900 506L803 516Z" fill="#00aa00" stroke="#00aa00"></path><path d="M900 118L900 0L792 83Z" fill="#009800" stroke="#009800"></path><path d="M119 0L0 0L76 126Z" fill="#007e00" stroke="#007e00"></path><path d="M795 600L900 600L803 516Z" fill="#006d00" stroke="#006d00"></path><path d="M0 461L0 600L137 484Z" fill="#00aa00" stroke="#00aa00"></path></g></svg>